# xmcd CD database file
#
# Track frame offsets:
#	150
#	15945
#	37042
#	56385
#	75552
#	89945
#	108110
#	127145
#	144835
#	160557
#	180562
#	196707
#
# Disc length: 2826 seconds
#
# Revision: 0
# Processed by: cddbd v1.4PL0 Copyright (c) Steve Scherf et al.
# Submitted via: CDex 1.40Beta9
#
DISCID=8d0b080c
DTITLE=Randy McAllister - Diggin' for Sofa Change
DYEAR=1997
DGENRE=Blues
TTITLE0=State of Confusion
TTITLE1=Battle Cry
TTITLE2=Sofa Change
TTITLE3=You Got No Right
TTITLE4=Scary Women
TTITLE5=I Don't Like It
TTITLE6=Down In The Gutter
TTITLE7=Bob's Number Two
TTITLE8=Babe and Nan's Thing
TTITLE9=Actions Speak Louder Than Words
TTITLE10=Woman On A Mission
TTITLE11=I Got It
EXTD=YEAR: 1997 ID3G: 0
EXTT0=
EXTT1=
EXTT2=
EXTT3=
EXTT4=
EXTT5=
EXTT6=
EXTT7=
EXTT8=
EXTT9=
EXTT10=
EXTT11=
PLAYORDER=
